<?xml version="1.0" encoding="UTF-8"?><svg xmlns="http://www.w3.org/2000/svg" xmlns:xlink="http://www.w3.org/1999/xlink" width="600" zoomAndPan="magnify" viewBox="0 0 600 525.000007" height="525.000007" preserveAspectRatio="xMidYMid meet" version="1.0"><defs><clipPath id="clip-0"><path d="M 135 13 L 466 13 L 466 401 L 135 401 Z M 135 13 " clip-rule="nonzero"/></clipPath><clipPath id="clip-1"><path d="M 149.492188 -26.277344 L 503.742188 33.839844 L 420.203125 526.101562 L 65.953125 465.980469 Z M 149.492188 -26.277344 " clip-rule="nonzero"/></clipPath><clipPath id="clip-2"><path d="M 149.492188 -26.277344 L 503.742188 33.839844 L 420.203125 526.101562 L 65.953125 465.980469 Z M 149.492188 -26.277344 " clip-rule="nonzero"/></clipPath><clipPath id="clip-3"><path d="M 149.492188 -26.277344 L 503.742188 33.839844 L 420.203125 526.101562 L 65.953125 465.980469 Z M 149.492188 -26.277344 " clip-rule="nonzero"/></clipPath><clipPath id="clip-4"><path d="M 193 407 L 320 407 L 320 499 L 193 499 Z M 193 407 " clip-rule="nonzero"/></clipPath><clipPath id="clip-5"><path d="M 149.492188 -26.277344 L 503.742188 33.839844 L 420.203125 526.101562 L 65.953125 465.980469 Z M 149.492188 -26.277344 " clip-rule="nonzero"/></clipPath><clipPath id="clip-6"><path d="M 149.492188 -26.277344 L 503.742188 33.839844 L 420.203125 526.101562 L 65.953125 465.980469 Z M 149.492188 -26.277344 " clip-rule="nonzero"/></clipPath><clipPath id="clip-7"><path d="M 149.492188 -26.277344 L 503.742188 33.839844 L 420.203125 526.101562 L 65.953125 465.980469 Z M 149.492188 -26.277344 " clip-rule="nonzero"/></clipPath></defs><g clip-path="url(#clip-0)"><g clip-path="url(#clip-1)"><g clip-path="url(#clip-2)"><g clip-path="url(#clip-3)"><path fill="rgb(92.549133%, 73.728943%, 69.018555%)" d="M 236.34375 391.238281 C 216.007812 386.402344 207.757812 375.605469 208.050781 368.632812 C 205.71875 339.847656 214.605469 310.199219 232.496094 287.515625 C 261.222656 251.046875 308.847656 234.894531 342.453125 202.910156 C 352.820312 193.097656 362.265625 179.960938 360.417969 165.800781 C 358.976562 155.070312 351.277344 146.246094 342.582031 139.824219 C 322.324219 124.617188 295.308594 118.945312 270.695312 124.757812 C 246.078125 130.570312 224.378906 147.757812 213.027344 170.363281 C 202.039062 195.5 122.429688 133.324219 137.148438 109.511719 C 173.039062 57.046875 212.140625 25.304688 274.90625 15.480469 C 337.667969 5.65625 406.820312 30.449219 442.488281 82.992188 C 478.160156 135.535156 473.046875 214.589844 425.453125 256.761719 C 411.828125 268.890625 395.507812 277.691406 381.226562 289.019531 C 347.785156 315.390625 333.074219 342.074219 326.597656 384.296875 C 324.109375 406.527344 282.332031 402.207031 236.34375 391.238281 Z M 236.34375 391.238281 " fill-opacity="1" fill-rule="nonzero"/></g></g></g></g><g clip-path="url(#clip-4)"><g clip-path="url(#clip-5)"><g clip-path="url(#clip-6)"><g clip-path="url(#clip-7)"><path fill="rgb(81.17981%, 47.059631%, 43.528748%)" d="M 315.300781 436.882812 C 329.507812 454.527344 308.449219 472.019531 290.625 473.347656 C 281.121094 474.011719 271.65625 472.109375 262.285156 470.8125 C 251.746094 469.421875 240.996094 468.683594 230.683594 465.945312 C 220.375 463.207031 210.277344 458.03125 204.039062 449.355469 C 197.800781 440.679688 196.058594 428.21875 202.015625 419.339844 C 207.167969 411.707031 216.871094 408.109375 226.085938 407.992188 C 235.300781 407.875 244.296875 410.785156 253.117188 413.570312 C 268.871094 418.617188 304.109375 423.015625 315.300781 436.882812 Z M 195.023438 485.015625 C 210.597656 490.527344 228.199219 492.824219 244.570312 494.8125 C 260.84375 496.78125 278.945312 499.65625 295.214844 496.976562 C 298.679688 496.378906 298.902344 491.570312 295.476562 490.789062 C 279.429688 487.472656 262.332031 488.03125 246.039062 486.15625 C 229.636719 484.363281 213.140625 480.773438 196.753906 479.476562 C 193.726562 479.257812 191.660156 483.851562 195.023438 485.015625 Z M 195.023438 485.015625 " fill-opacity="1" fill-rule="nonzero"/></g></g></g></g></svg>