<?xml version="1.0" encoding="UTF-8"?><svg xmlns="http://www.w3.org/2000/svg" xmlns:xlink="http://www.w3.org/1999/xlink" width="600" zoomAndPan="magnify" viewBox="0 0 600 525.000007" height="525.000007" preserveAspectRatio="xMidYMid meet" version="1.0"><defs><clipPath id="clip-0"><path d="M 8 56 L 136 56 L 136 471.199219 L 8 471.199219 Z M 8 56 " clip-rule="nonzero"/></clipPath><clipPath id="clip-1"><path d="M 116 56 L 172.617188 56 L 172.617188 419 L 116 419 Z M 116 56 " clip-rule="nonzero"/></clipPath></defs><path fill="rgb(43.139648%, 49.409485%, 45.489502%)" d="M 473.425781 55.828125 C 499.710938 58.757812 525.914062 63.78125 550.945312 72.652344 C 568.691406 78.933594 587.945312 89.980469 590.625 108.5625 C 591.878906 117.519531 588.949219 126.476562 585.601562 134.84375 C 582.671875 142.210938 579.238281 149.746094 572.960938 154.597656 C 564.757812 161.042969 553.539062 161.460938 543.074219 161.714844 C 511.011719 162.382812 478.949219 163.054688 446.886719 163.722656 C 372.128906 165.3125 297.207031 166.820312 222.785156 160.207031 C 212.988281 159.371094 202.859375 158.199219 194.488281 153.09375 C 180.089844 144.136719 174.480469 124.382812 179.167969 108.058594 C 183.855469 91.738281 197.082031 78.847656 212.234375 71.148438 C 227.386719 63.445312 244.464844 60.351562 261.292969 58.171875 C 306.75 52.230469 449.230469 53.152344 473.425781 55.828125 Z M 473.425781 55.828125 " fill-opacity="1" fill-rule="nonzero"/><path fill="rgb(50.979614%, 42.349243%, 37.249756%)" d="M 281.550781 219.300781 C 323.492188 220.304688 495.859375 214.195312 539.476562 224.65625 C 549.855469 227.167969 561.074219 230.683594 567.015625 239.558594 C 576.226562 253.199219 568.523438 271.363281 560.738281 285.84375 C 557.640625 291.703125 554.292969 297.730469 548.851562 301.582031 C 542.574219 305.933594 534.453125 306.601562 526.835938 307.105469 C 483.972656 309.867188 441.109375 312.546875 398.25 315.308594 C 329.183594 319.660156 263.386719 319.074219 189.046875 310.371094 C 185.363281 309.949219 181.929688 307.523438 179.839844 304.511719 C 176.992188 300.492188 177.578125 295.050781 178.246094 290.195312 C 180.171875 276.722656 182.183594 263.160156 184.109375 249.683594 C 184.609375 246.167969 185.195312 242.488281 187.289062 239.640625 C 203.445312 217.878906 225.714844 217.878906 281.550781 219.300781 Z M 281.550781 219.300781 " fill-opacity="1" fill-rule="nonzero"/><path fill="rgb(94.119263%, 73.728943%, 40.779114%)" d="M 258.027344 378.253906 C 280.628906 376.242188 450.488281 359.25 512.519531 366.449219 C 528.171875 368.292969 545.585938 371.640625 554.375 384.699219 C 563.753906 398.59375 559.316406 417.425781 552.367188 432.660156 C 549.351562 439.355469 545.667969 446.21875 539.640625 450.488281 C 533.28125 455.089844 525.074219 456.179688 517.289062 457.183594 C 424.367188 468.652344 330.691406 474.425781 237.097656 471.582031 C 224.289062 471.164062 211.230469 470.578125 199.34375 465.804688 C 187.457031 461.035156 176.824219 451.242188 174.398438 438.6875 C 172.640625 429.226562 175.570312 419.601562 178.5 410.476562 C 190.21875 374.234375 226.382812 381.097656 258.027344 378.253906 Z M 258.027344 378.253906 " fill-opacity="1" fill-rule="nonzero"/><g clip-path="url(#clip-0)"><path fill="rgb(85.488892%, 81.959534%, 70.588684%)" d="M 9.09375 184.847656 C 8.097656 142.46875 7.929688 100.089844 8.511719 57.710938 C 47.9375 55.136719 87.195312 56.214844 126.371094 61.523438 C 126.953125 93.621094 128.617188 156.152344 127.203125 188.246094 C 85.03125 188.496094 50.265625 184.183594 9.09375 184.847656 Z M 135.601562 465.246094 C 136.933594 433.234375 133.605469 384.714844 133.023438 352.703125 C 89.191406 352.703125 55.503906 350.132812 16.164062 352.703125 C 15.582031 395.082031 16.082031 428.753906 17.078125 471.050781 C 58.167969 470.386719 93.433594 465.578125 135.601562 465.246094 Z M 130.863281 323.347656 C 131.859375 280.964844 131.777344 245.222656 131.195312 202.84375 C 91.769531 200.273438 52.511719 201.351562 13.417969 206.65625 C 12.835938 238.753906 11.339844 294.652344 12.753906 326.746094 C 54.921875 326.996094 89.691406 322.683594 130.863281 323.347656 Z M 130.863281 323.347656 " fill-opacity="1" fill-rule="nonzero"/></g><g clip-path="url(#clip-1)"><path fill="rgb(96.859741%, 77.648926%, 58.81958%)" d="M 126.371094 62.1875 C 128.699219 60.113281 131.113281 58.125 133.441406 56.382812 C 141.839844 63.183594 153.652344 72.96875 161.636719 80.265625 C 148.992188 92.375 137.683594 104.734375 127.367188 117.007812 C 117.054688 129.199219 108.738281 77.863281 126.371094 62.1875 Z M 131.609375 269.769531 C 144.585938 257.164062 158.226562 244.0625 172.617188 230.292969 C 164.632812 222.996094 152.738281 213.292969 144.417969 206.410156 C 140.011719 209.726562 135.6875 213.542969 131.445312 217.6875 C 117.472656 247.128906 114.144531 271.179688 131.609375 269.769531 Z M 135.269531 417.394531 C 146.996094 401.21875 159.390625 384.21875 172.53125 366.386719 C 163.382812 360.582031 154.234375 356.851562 144.835938 351.542969 C 141.34375 357.015625 137.433594 362.65625 133.441406 368.296875 C 121.960938 384.21875 128.53125 426.765625 135.269531 417.394531 Z M 135.269531 417.394531 " fill-opacity="1" fill-rule="nonzero"/></g><path fill="rgb(70.588684%, 67.449951%, 53.329468%)" d="M 135.269531 417.394531 C 128.53125 426.765625 121.960938 435.886719 115.640625 444.761719 C 102.832031 446.335938 89.109375 448.078125 80.292969 449.074219 C 69.5625 434.3125 62.242188 419.464844 51.511719 404.703125 C 59.332031 397.820312 68.398438 389.277344 76.796875 382.976562 C 85.03125 391.351562 94.929688 401.550781 101.585938 411.253906 C 109.320312 399.976562 122.046875 384.136719 133.441406 368.296875 C 133.9375 383.472656 134.769531 400.640625 135.269531 417.394531 Z M 131.445312 217.6875 C 116.390625 232.367188 102.582031 250.777344 92.519531 261.144531 C 87.695312 250.445312 82.039062 239.996094 75.382812 230.292969 C 66.070312 235.019531 55.671875 241.90625 46.773438 247.378906 C 54.839844 263.800781 59.414062 279.640625 67.484375 295.976562 C 76.382812 296.558594 90.105469 297.222656 103.082031 297.800781 C 112.230469 288.761719 121.796875 279.390625 131.695312 269.769531 C 131.695312 252.6875 131.609375 235.683594 131.445312 217.6875 Z M 126.371094 62.1875 C 108.820312 77.863281 91.851562 101.414062 83.953125 115.515625 C 79.128906 104.816406 73.554688 94.28125 66.902344 84.578125 C 57.585938 89.308594 48.269531 96.191406 39.371094 101.664062 C 47.4375 118.085938 55.503906 134.421875 63.574219 150.84375 C 72.472656 151.425781 86.195312 152.085938 99.171875 152.667969 C 107.738281 141.222656 117.054688 129.113281 127.367188 116.925781 " fill-opacity="1" fill-rule="nonzero"/></svg>